<?xml version="1.0" encoding="UTF-8"?>
<svg version="1.1" xmlns="http://www.w3.org/2000/svg" width="1500" height="723">
<path d="M0 0 C1.63690796 0.01135986 1.63690796 0.01135986 3.30688477 0.02294922 C19.81261051 0.35927471 32.23884475 5.72811684 44.30859375 17.0234375 C50.8716798 23.86321352 55.28634092 32.07803233 59.625 40.4375 C61.75384338 37.7145608 63.46918678 34.96642662 65.125 31.9375 C74.78637303 15.84312428 88.76705833 6.69116213 106.625 1.4375 C125.77260645 -2.97159244 145.91773076 0.56772529 162.625 10.4375 C177.9144689 20.63047926 185.60738731 34.76601415 189.25239944 52.36047077 C191.05842641 62.42801021 190.78017912 72.65496505 190.78613281 82.84301758 C190.79076802 84.69842628 190.79579361 86.55383404 190.80117798 88.40924072 C190.81422598 93.42328683 190.82073059 98.43731961 190.82518864 103.45138001 C190.82812833 106.58558151 190.83223453 109.71977943 190.83669281 112.85397911 C190.85034026 122.66609644 190.86002349 132.4782055 190.8638947 142.29033166 C190.86838558 153.60882528 190.88599262 164.92719876 190.9148953 176.24565583 C190.93648895 185.00595053 190.94659754 193.76621132 190.94793582 202.52653235 C190.9489844 207.75522635 190.95490503 212.98380697 190.97275543 218.21247292 C190.98919866 223.1233833 190.99140993 228.03409453 190.98261642 232.94502258 C190.98184436 234.7473879 190.986211 236.54976379 190.99607468 238.35210228 C191.00874439 240.81108957 191.00294513 243.2693658 190.99249268 245.72834778 C191.00457728 246.79935351 191.00457728 246.79935351 191.01690602 247.89199573 C190.97357581 252.24583192 190.30686739 254.98444523 187.625 258.4375 C184.31971543 260.64102305 183.25709252 260.70020121 179.40673828 260.74389648 C178.34198273 260.75988388 177.27722717 260.77587128 176.1802063 260.79234314 C174.45518387 260.80038719 174.45518387 260.80038719 172.6953125 260.80859375 C171.51282928 260.81762222 170.33034607 260.8266507 169.11203003 260.83595276 C166.60872943 260.85047072 164.10539076 260.85934581 161.60205078 260.86303711 C157.77181054 260.87493227 153.9431813 260.92410574 150.11328125 260.97460938 C147.68229954 260.9840734 145.25130792 260.99130853 142.8203125 260.99609375 C141.67434601 261.01562607 140.52837952 261.03515839 139.34768677 261.05528259 C138.27662689 261.04920486 137.20556702 261.04312714 136.10205078 261.03686523 C135.16289825 261.04193588 134.22374573 261.04700653 133.25613403 261.05223083 C129.4774161 260.16938169 128.06558927 258.41140339 125.625 255.4375 C124.99973011 252.22647572 124.99973011 252.22647572 124.9992218 248.52558899 C124.99227726 247.84233573 124.98533271 247.15908246 124.97817773 246.45512456 C124.96095122 244.17174231 124.97920332 241.89004413 124.99731445 239.60668945 C124.9921348 237.96701749 124.98473414 236.32735126 124.97528076 234.68769836 C124.95971699 231.15884022 124.9598894 227.63045708 124.97228432 224.1015873 C124.99183428 218.51567209 124.97662133 212.9301785 124.95683289 207.34428406 C124.92967492 198.50232577 124.9261924 189.66053918 124.93260592 180.81854743 C124.94353281 165.00318632 124.91885413 149.18787808 124.87885827 133.37256974 C124.86582403 127.82652048 124.86450698 122.28062881 124.8729912 116.73457205 C124.87663204 113.27388394 124.87229728 109.81323557 124.8661499 106.35255241 C124.86507005 104.75547767 124.8673936 103.15839616 124.8734951 101.5613327 C125.19688578 83.52536167 125.19688578 83.52536167 117.20703125 67.90234375 C110.57490545 62.05447961 103.17627699 61.38760924 94.625 61.4375 C87.06924991 62.43421597 80.79014821 65.84768377 75.625 71.4375 C66.13025376 85.8727673 66.4727545 102.79296258 66.49902344 119.46826172 C66.49762545 120.949438 66.49572405 122.43061388 66.49336243 123.91178894 C66.48889816 127.07862545 66.48701008 130.2454491 66.48690033 133.41228867 C66.48575207 138.42171206 66.47285961 143.43106313 66.45733643 148.44046021 C66.45476357 149.28861231 66.45219072 150.13676441 66.4495399 151.01061809 C66.44427473 152.74342988 66.43898925 154.47624161 66.43368387 156.20905328 C66.39864509 167.85617814 66.37203142 179.5032085 66.37451172 191.15039062 C66.3760995 199.03052262 66.36009547 206.91040354 66.32380509 214.79045498 C66.30535241 218.95392684 66.29599746 223.11697931 66.30828094 227.28048325 C66.31970562 231.18946376 66.30804347 235.09769064 66.27864647 239.00657082 C66.27200185 240.43964207 66.27387979 241.87278224 66.28494453 243.30582619 C66.29880341 245.26309105 66.27898321 247.22050775 66.25750732 249.17770386 C66.25604076 250.27233381 66.2545742 251.36696377 66.2530632 252.49476433 C65.41639093 256.4149197 63.68278384 257.93444665 60.625 260.4375 C58.00732422 261.06568909 58.00732422 261.06568909 55.1796875 261.06860352 C54.11508301 261.08113663 53.05047852 261.09366974 51.95361328 261.10658264 C50.8139209 261.09332443 49.67422852 261.08006622 48.5 261.06640625 C46.73052002 261.07002419 46.73052002 261.07002419 44.92529297 261.07371521 C42.43388504 261.07273673 39.94245537 261.05934309 37.45117188 261.03442383 C33.63857126 261.0001221 29.82828896 261.01376582 26.015625 261.03320312 C23.59374014 261.02630457 21.17186125 261.0166321 18.75 261.00390625 C17.04046143 261.01134605 17.04046143 261.01134605 15.29638672 261.01893616 C14.23178223 261.00309982 13.16717773 260.98726349 12.0703125 260.97094727 C10.67063232 260.9616494 10.67063232 260.9616494 9.24267578 260.9521637 C5.7236339 260.26028156 4.15889704 258.96132208 1.625 256.4375 C0.99973011 253.52245712 0.99973011 253.52245712 0.9992218 250.06585693 C0.98682465 248.75404449 0.97442749 247.44223206 0.96165466 246.09066772 C0.97309712 244.63824106 0.98499921 243.18581796 0.99731445 241.73339844 C0.99213548 240.20212941 0.98473535 238.67086652 0.97528076 237.13961792 C0.95970358 233.84046951 0.95989964 230.54182912 0.97228432 227.24266815 C0.99184321 222.01222768 0.97661294 216.78223719 0.95683289 211.55181885 C0.92965638 203.262378 0.92619403 194.97312017 0.93260592 186.68364358 C0.94351276 171.88487146 0.91870527 157.08615751 0.87885827 142.28744149 C0.86588442 137.10349827 0.86447145 131.91972364 0.8729912 126.73577261 C0.87665625 123.48565859 0.87226946 120.23558627 0.8661499 116.98547745 C0.86507838 115.4957399 0.86734409 114.00599492 0.8734951 112.51626968 C1.26936171 88.95624585 1.26936171 88.95624585 -8.26953125 68.21484375 C-14.91996713 62.02218166 -21.27955511 61.03777195 -30.1796875 61.1796875 C-34.51185457 61.52922665 -37.46172099 62.55074048 -41.375 64.4375 C-42.261875 64.85 -43.14875 65.2625 -44.0625 65.6875 C-53.35576358 72.72024001 -55.31066168 84.85119078 -56.94326973 95.70932007 C-57.68936978 102.1522207 -57.65881101 108.58501012 -57.64624023 115.0625 C-57.65063899 116.58338191 -57.65594528 118.10426142 -57.66207886 119.62513733 C-57.67348316 122.87161729 -57.67903108 126.11803283 -57.67996025 129.36453247 C-57.68191657 134.500161 -57.70005009 139.63565749 -57.72071838 144.77124023 C-57.76967387 157.51406217 -57.80083989 170.25691922 -57.82202148 182.99981689 C-57.83854613 192.93183014 -57.86132282 202.86372799 -57.90504223 212.79566383 C-57.92680023 217.89988384 -57.93487851 223.00388442 -57.93264949 228.10814762 C-57.93431566 231.27801417 -57.94835848 234.44773689 -57.96586227 237.6175518 C-57.97146158 239.08610425 -57.97194717 240.55468651 -57.96692467 242.02324104 C-57.96078495 244.02860125 -57.97475968 246.03399292 -57.98973083 248.03930664 C-57.99274783 249.72160118 -57.99274783 249.72160118 -57.99582577 251.43788147 C-58.42358618 254.8218616 -59.35700226 256.71147613 -61.375 259.4375 C-63.91951979 260.7097599 -65.73862768 260.58530665 -68.58740234 260.61450195 C-69.67548187 260.62733719 -70.7635614 260.64017242 -71.88461304 260.65339661 C-73.06480011 260.66078354 -74.24498718 260.66817047 -75.4609375 260.67578125 C-76.66940338 260.683853 -77.87786926 260.69192474 -79.12295532 260.70024109 C-81.68351808 260.71408995 -84.24409935 260.7248085 -86.8046875 260.73266602 C-90.72691628 260.74989858 -94.64830674 260.79378161 -98.5703125 260.83789062 C-101.05468129 260.84801541 -103.53905725 260.85653218 -106.0234375 260.86328125 C-107.19957611 260.88078934 -108.37571472 260.89829742 -109.5874939 260.91633606 C-111.22906967 260.91194771 -111.22906967 260.91194771 -112.90380859 260.9074707 C-113.86596283 260.91333694 -114.82811707 260.91920319 -115.81942749 260.92524719 C-119.11417709 260.29642337 -120.27688008 258.99300553 -122.375 256.4375 C-123.51053274 254.16643452 -123.5021499 252.93179468 -123.50642776 250.41034985 C-123.51026891 249.56298612 -123.51411005 248.71562239 -123.5180676 247.84258097 C-123.51720112 246.90631682 -123.51633463 245.97005267 -123.51544189 245.00541687 C-123.51841302 244.01493263 -123.52138414 243.02444838 -123.5244453 242.00394946 C-123.53316137 238.663676 -123.53464299 235.32343825 -123.53613281 231.9831543 C-123.54075892 229.59691287 -123.5457833 227.21067219 -123.55117798 224.82443237 C-123.56432378 218.32648974 -123.5707876 211.82855397 -123.57518864 205.3306005 C-123.57794956 201.27446915 -123.58218665 197.2183402 -123.58669281 193.16221046 C-123.59888701 181.93564217 -123.60918585 170.7090758 -123.6125679 159.48250103 C-123.61278747 158.76369955 -123.61300703 158.04489807 -123.61323325 157.30431472 C-123.61345153 156.58377586 -123.61366981 155.86323699 -123.6138947 155.12086362 C-123.61433817 153.66073525 -123.61478473 152.20060688 -123.61523438 150.74047852 C-123.61556652 149.65406326 -123.61556652 149.65406326 -123.61590537 148.54570023 C-123.61985358 136.80919774 -123.63730757 125.07275733 -123.6605939 113.33627882 C-123.68429955 101.2913867 -123.6967694 89.24652574 -123.69793582 77.20160991 C-123.69885305 70.43691524 -123.70461741 63.67230143 -123.72275543 56.90762901 C-123.73918824 50.54570676 -123.74141491 44.18393827 -123.73261642 37.82200241 C-123.73184348 35.48427609 -123.7362224 33.14654167 -123.74607468 30.80883598 C-123.75871787 27.62255026 -123.75295873 24.43681538 -123.74249268 21.25053406 C-123.75054908 20.32096207 -123.75860548 19.39139008 -123.76690602 18.43364924 C-123.72989718 13.63088339 -123.55754364 10.30968773 -120.375 6.4375 C-117.89755138 5.19877569 -116.20953564 5.29057039 -113.43798828 5.26049805 C-111.89596237 5.24124519 -111.89596237 5.24124519 -110.32278442 5.22160339 C-109.20821869 5.21421646 -108.09365295 5.20682953 -106.9453125 5.19921875 C-105.23249588 5.18711113 -105.23249588 5.18711113 -103.4850769 5.17475891 C-101.06575035 5.16091123 -98.6464042 5.15019215 -96.22705078 5.14233398 C-92.52208628 5.12510272 -88.81800962 5.08121915 -85.11328125 5.03710938 C-82.76563158 5.02698441 -80.41797431 5.0184677 -78.0703125 5.01171875 C-76.95979523 4.99421066 -75.84927795 4.97670258 -74.70510864 4.95866394 C-73.67078705 4.96158951 -72.63646545 4.96451508 -71.57080078 4.9675293 C-70.66194122 4.96166306 -69.75308167 4.95579681 -68.81668091 4.94975281 C-65.60892403 5.5905304 -64.43257377 6.95620182 -62.375 9.4375 C-60.97939955 12.22870091 -61.15691712 14.63955692 -61.05859375 17.7578125 C-61.01669922 19.01464844 -60.97480469 20.27148438 -60.93164062 21.56640625 C-60.89232422 22.88511719 -60.85300781 24.20382812 -60.8125 25.5625 C-60.76930488 26.90235751 -60.72569027 28.24220156 -60.68164062 29.58203125 C-60.57529019 32.86707815 -60.47326192 36.15220281 -60.375 39.4375 C-59.93027344 38.54224609 -59.48554688 37.64699219 -59.02734375 36.72460938 C-55.08789882 28.88927603 -50.667701 22.64249785 -44.375 16.4375 C-43.73820312 15.79039062 -43.10140625 15.14328125 -42.4453125 14.4765625 C-30.82577031 3.43558673 -15.61564765 -0.15293988 0 0 Z " fill="#232F3E" transform="translate(378.375,272.5625)"/>
<path d="M0 0 C14.79405642 15.08020838 17.96896828 36.12617878 17.98974609 56.35473633 C17.99482681 57.4486821 17.99990753 58.54262787 18.00514221 59.66972351 C18.01579355 62.03171315 18.02443398 64.39371254 18.03126144 66.75571632 C18.0431252 70.50253559 18.06259628 74.24924344 18.0843811 77.99601746 C18.14575127 88.64452936 18.2002407 99.29301347 18.23339844 109.94165039 C18.25380917 116.46845471 18.28976529 122.99507952 18.33415604 129.52176476 C18.3482564 131.99868 18.3570249 134.47563189 18.36021042 136.95258522 C18.36515227 140.42669839 18.38839355 143.90026637 18.41552734 147.37426758 C18.41252121 148.38296906 18.40951508 149.39167053 18.40641785 150.43093872 C18.59178987 166.5184201 24.6184114 179.71051707 34.58032227 192.07568359 C36.81985216 194.98883046 37.82429842 197.00687346 38.37109375 200.6640625 C37.40714452 206.73414861 33.41279023 209.60123803 28.76953125 213.24609375 C24.83149127 216.39966361 21.04026498 219.63765503 17.33203125 223.05859375 C-0.71981459 239.63629172 -0.71981459 239.63629172 -7.64453125 240.484375 C-15.8373745 239.49433075 -21.86992442 231.66840965 -26.91796875 225.62109375 C-30.87210577 220.57689734 -34.58399726 215.37116885 -38.16796875 210.05859375 C-42.67054987 213.26573952 -46.83438983 216.63627373 -50.85546875 220.43359375 C-70.14655209 237.98168488 -94.74118139 243.16410624 -120.16796875 242.05859375 C-139.11648882 240.64452509 -156.1321867 234.21528699 -169.16796875 220.05859375 C-183.60688657 202.10719751 -187.04807456 179.29528821 -184.96142578 156.83544922 C-182.37350013 135.86297802 -172.33972703 117.62277562 -156.16796875 104.05859375 C-125.96863487 80.67252422 -84.61701454 79.62102406 -48.16796875 76.05859375 C-48.27973991 72.76634237 -48.40989111 69.47504728 -48.54296875 66.18359375 C-48.589375 64.806875 -48.589375 64.806875 -48.63671875 63.40234375 C-49.0596159 53.39377776 -50.21432471 43.41964349 -56.16796875 35.05859375 C-64.28943991 27.68374939 -73.49364869 26.48778782 -84.14453125 26.73828125 C-92.16190264 27.18810077 -98.76854203 30.41900938 -105.16796875 35.05859375 C-106.65296875 35.55359375 -106.65296875 35.55359375 -108.16796875 36.05859375 C-109.19448248 37.77379122 -109.19448248 37.77379122 -110.16796875 40.05859375 C-111.12703125 41.60546875 -111.12703125 41.60546875 -112.10546875 43.18359375 C-114.24300547 46.82997992 -115.22685649 50.52617223 -116.1640625 54.62890625 C-117.57242025 58.0374608 -119.26353781 59.79691378 -122.16796875 62.05859375 C-125.21484375 62.46875 -125.21484375 62.46875 -128.91796875 62.12109375 C-129.61245117 62.05897705 -130.30693359 61.99686035 -131.02246094 61.93286133 C-132.69613019 61.77299515 -134.36827741 61.59680467 -136.0390625 61.40917969 C-139.10620176 61.06551458 -142.17582508 60.7546171 -145.24676514 60.44709778 C-148.22156847 60.14394978 -151.19400923 59.82114605 -154.1661377 59.4928894 C-155.66198519 59.32894786 -157.15833346 59.16951022 -158.65515137 59.01467896 C-160.79198209 58.79001938 -162.92500888 58.54250863 -165.05859375 58.2890625 C-166.30672852 58.14879639 -167.55486328 58.00853027 -168.84082031 57.86401367 C-172.56603169 56.96223261 -174.44140892 55.71412795 -177.16796875 53.05859375 C-180.16003359 44.73430163 -174.43203683 32.71481657 -171.16796875 25.05859375 C-166.95581516 16.29384308 -161.00497064 8.90773951 -154.16796875 2.05859375 C-153.55566406 1.4346875 -152.94335938 0.81078125 -152.3125 0.16796875 C-114.48397843 -35.64410711 -38.17560681 -34.18608394 0 0 Z M-106.2734375 131.16015625 C-110.51523352 136.27925337 -113.14156834 141.75060538 -115.16796875 148.05859375 C-115.36132812 148.64769531 -115.5546875 149.23679687 -115.75390625 149.84375 C-117.66245081 160.05266288 -117.17897337 172.20342221 -111.87890625 181.26171875 C-107.11801681 188.13573024 -101.48204486 192.48178621 -93.16796875 194.05859375 C-84.32702592 195.1511057 -76.14007685 192.42134339 -68.91796875 187.30859375 C-67.64192954 186.25605632 -66.39109163 185.17218323 -65.16796875 184.05859375 C-64.57371094 183.51847656 -63.97945312 182.97835937 -63.3671875 182.421875 C-48.11682719 166.83336923 -47.84299503 144.89058784 -48.01391602 124.50732422 C-48.05524689 121.35745432 -48.10529355 118.20810297 -48.16796875 115.05859375 C-68.44189342 114.46936235 -91.01378827 115.92881806 -106.2734375 131.16015625 Z " fill="#232F3E" transform="translate(793.16796875,294.94140625)"/>
<path d="M0 0 C11.04160209 10.28185883 16.33091975 22.23788741 19.3046875 36.75390625 C19.48036758 37.58788437 19.65604767 38.42186249 19.83705139 39.28111267 C20.48487043 44.09199394 20.4658954 48.84432485 20.47827148 53.69360352 C20.4849585 54.78550491 20.49164551 55.87740631 20.49853516 57.00239563 C20.51256061 59.36934366 20.52446258 61.73630502 20.53448296 64.10327339 C20.5509488 67.85852494 20.57419142 71.61367865 20.59938049 75.36888123 C20.66998525 86.04478254 20.7301381 96.72071912 20.78149414 107.39672852 C20.81301856 113.93301235 20.85475164 120.46919327 20.90168953 127.00538445 C20.91762263 129.4870596 20.92998388 131.96876052 20.93859673 134.45047188 C21.02495779 158.98858826 23.3064843 175.81824147 38.3046875 195.75390625 C40.66685238 199.29715357 40.91783823 201.25927007 40.796875 205.42578125 C39.86152043 209.85015685 36.70785479 212.02428248 33.3046875 214.75390625 C32.4590625 215.45257813 31.6134375 216.15125 30.7421875 216.87109375 C28.87861257 218.40113112 27.00723522 219.92170549 25.12890625 221.43359375 C22.44675084 223.63719031 19.86842329 225.9143445 17.3046875 228.25390625 C0.60285665 243.45685485 0.60285665 243.45685485 -6.359375 243.34375 C-11.56908546 242.02825455 -15.09286219 237.51416783 -18.6953125 233.75390625 C-19.56929687 232.85285156 -20.44328125 231.95179688 -21.34375 231.0234375 C-34.6953125 216.80983718 -34.6953125 216.80983718 -34.6953125 211.75390625 C-35.13359375 212.14320313 -35.571875 212.5325 -36.0234375 212.93359375 C-38.23680027 214.88603164 -40.46687858 216.81868732 -42.6953125 218.75390625 C-43.58992187 219.54925781 -44.48453125 220.34460938 -45.40625 221.1640625 C-66.1686579 239.17113745 -90.30497695 245.96983236 -117.6953125 244.75390625 C-137.34675575 243.17638214 -154.27893331 236.4293128 -167.43164062 221.32226562 C-174.48449102 212.56888253 -178.23427511 202.64086828 -180.6953125 191.75390625 C-180.8696582 190.99964355 -181.04400391 190.24538086 -181.22363281 189.46826172 C-185.30137681 166.00223802 -181.16617672 141.42489558 -167.64453125 121.7734375 C-165.746909 119.33784855 -163.77545973 117.03439553 -161.6953125 114.75390625 C-161.19 114.15707031 -160.6846875 113.56023437 -160.1640625 112.9453125 C-133.06522609 83.01215901 -83.76422758 82.27077348 -46.6953125 78.75390625 C-43.67434678 67.8300942 -45.75510244 52.04874213 -50.44921875 41.80078125 C-53.93834352 36.06942896 -59.41015508 32.70885658 -65.62890625 30.44921875 C-77.1693174 27.83241214 -88.65975773 29.13205744 -98.9296875 35.0390625 C-107.32604772 40.70502739 -111.02574558 48.47421124 -113.54296875 58.0546875 C-115.02809014 61.53339557 -116.50371151 62.73310036 -119.6953125 64.75390625 C-123.06176758 64.98730469 -123.06176758 64.98730469 -126.90234375 64.61328125 C-127.94513237 64.52007599 -127.94513237 64.52007599 -129.00898743 64.42498779 C-130.48676684 64.28969922 -131.96364927 64.14428514 -133.43951416 63.98950195 C-135.65921447 63.75767633 -137.87975527 63.555606 -140.10302734 63.36132812 C-143.7918499 63.03144711 -147.47293843 62.65066899 -151.15405273 62.24414062 C-152.65862534 62.0819652 -154.16423683 61.92919104 -155.6706543 61.78515625 C-157.89390609 61.57189925 -160.11243628 61.33018062 -162.33203125 61.08203125 C-163.62842529 60.94700195 -164.92481934 60.81197266 -166.26049805 60.67285156 C-170.39764531 59.56600514 -172.06714701 58.09187505 -174.6953125 54.75390625 C-175.37727808 49.5939012 -174.22385216 45.07531682 -172.6328125 40.19140625 C-172.40948242 39.49958252 -172.18615234 38.80775879 -171.95605469 38.0949707 C-164.76904956 16.68796258 -151.43506209 1.5291716 -131.6953125 -9.24609375 C-92.53549114 -28.66936515 -34.82497799 -29.02081499 0 0 Z M-104.3828125 135.37890625 C-109.8156178 141.85600365 -113.22639854 150.31345498 -113.6953125 158.75390625 C-113.74558594 159.48738281 -113.79585938 160.22085938 -113.84765625 160.9765625 C-114.22718628 170.55590042 -112.26532652 179.93245836 -106.57421875 187.77734375 C-101.82105742 192.77755088 -95.57709362 196.26002956 -88.6875 196.95703125 C-78.69930497 197.1781721 -71.17040011 194.30440231 -63.6953125 187.75390625 C-62.81939453 187.06941406 -62.81939453 187.06941406 -61.92578125 186.37109375 C-57.60800649 182.64786585 -55.03761223 178.18862492 -52.4453125 173.19140625 C-52.11595703 172.57346191 -51.78660156 171.95551758 -51.44726562 171.31884766 C-45.52889616 159.27333188 -45.27874621 146.47746398 -45.5078125 133.37890625 C-45.52291044 131.85287803 -45.53658967 130.32683509 -45.54882812 128.80078125 C-45.58137441 125.11817581 -45.63286375 121.43614069 -45.6953125 117.75390625 C-67.11281816 117.0846092 -88.69013456 119.14857767 -104.3828125 135.37890625 Z " fill="#232F3E" transform="translate(181.6953125,292.24609375)"/>
<path d="M0 0 C17.48256582 13.6461854 24.55471618 30.62720153 27.30694491 52.21788669 C28.30903636 60.77558896 28.3040953 69.31351956 28.30639648 77.91894531 C28.31403854 79.75715971 28.32246945 81.59537098 28.33161926 83.43357849 C28.35334024 88.37283114 28.36232987 93.31202205 28.36744571 98.25131702 C28.371109 101.34099099 28.37735838 104.43064919 28.3844471 107.52031708 C28.40884095 118.30765993 28.42197644 129.0949552 28.42553711 139.88232422 C28.42918855 149.93015273 28.45922402 159.97767888 28.50094169 170.02541471 C28.5355817 178.67202337 28.55108427 187.31853115 28.55178314 195.96520877 C28.55257658 201.12176216 28.56135046 206.27800492 28.58978081 211.43448639 C28.61586114 216.27089977 28.61822327 221.10674212 28.60212517 225.94319344 C28.60030403 227.71857762 28.60706105 229.49399402 28.62294388 231.26930809 C28.64328038 233.68935736 28.63292938 236.10738342 28.61473083 238.52740479 C28.63453079 239.58496786 28.63453079 239.58496786 28.65473074 240.66389585 C28.59112086 244.35640023 28.24450733 245.74930952 25.62518406 248.43487072 C22.65783353 250.20399894 20.98505356 250.51065986 17.5546875 250.53344727 C16.49008301 250.5492836 15.42547852 250.56511993 14.32861328 250.58143616 C13.1889209 250.57647629 12.04922852 250.57151642 10.875 250.56640625 C9.10552002 250.57570412 9.10552002 250.57570412 7.30029297 250.58518982 C4.80892766 250.59228629 2.31751491 250.58911711 -0.17382812 250.57641602 C-3.9865638 250.56254887 -7.79684648 250.5966305 -11.609375 250.63476562 C-14.0312506 250.6357168 -16.45312927 250.63385808 -18.875 250.62890625 C-20.01469238 250.64216446 -21.15438477 250.65542267 -22.32861328 250.66908264 C-23.39321777 250.65654953 -24.45782227 250.64401642 -25.5546875 250.63110352 C-26.48780762 250.63014175 -27.42092773 250.62917999 -28.38232422 250.62818909 C-32.12864148 249.72914894 -33.56320861 247.93843076 -36 245 C-36.62526989 241.97473335 -36.62526989 241.97473335 -36.6257782 238.53933716 C-36.64437393 236.58000999 -36.64437393 236.58000999 -36.66334534 234.58110046 C-36.65190369 233.14016363 -36.64000163 231.6992304 -36.62768555 230.25830078 C-36.63286598 228.73511378 -36.64026724 227.21193296 -36.64971924 225.68876648 C-36.66528147 222.41036763 -36.66511142 219.13248011 -36.65271568 215.85406876 C-36.63314176 210.65742701 -36.64839545 205.46123748 -36.66816711 200.26461792 C-36.69532879 192.03068425 -36.69880831 183.79693489 -36.69239408 175.56296527 C-36.68147959 160.85732187 -36.7062772 146.15173661 -36.74614173 131.44614971 C-36.75912204 126.29454275 -36.76052488 121.14310544 -36.7520088 115.9914906 C-36.74834715 112.76436961 -36.75272659 109.53729069 -36.7588501 106.31017494 C-36.75992274 104.82969184 -36.75764916 103.34920129 -36.7515049 101.86873055 C-36.69163244 86.69480132 -36.81111563 69.01351109 -46.4375 56.375 C-51.51262324 51.67122724 -56.51806123 50.26784144 -63.25 49.75 C-72.12870565 50.34191371 -79.20833765 53.99954941 -85.5 60.25 C-88.72755028 64.08584689 -90.54515649 68.11402056 -92.3125 72.75 C-92.67601562 73.69601074 -92.67601562 73.69601074 -93.046875 74.66113281 C-96.88840501 85.48578306 -97.29679193 96.58360995 -97.28710938 107.96069336 C-97.29314873 109.42231624 -97.30007675 110.88393567 -97.30781555 112.34555054 C-97.3225875 115.46708618 -97.3314238 118.58855917 -97.33552551 121.71012688 C-97.3422909 126.64825073 -97.36410066 131.58624102 -97.38806152 136.52430725 C-97.44095115 147.88659481 -97.47458814 159.24892326 -97.50782013 170.61128235 C-97.53852987 181.05146336 -97.57333762 191.49158608 -97.62413073 201.93169123 C-97.64744405 206.83933895 -97.66121062 211.74689191 -97.66762543 216.65458953 C-97.67356448 219.70315429 -97.68765951 222.75164186 -97.70396996 225.80016708 C-97.70984295 227.21227961 -97.71231879 228.62441102 -97.71113014 230.03653526 C-97.70996941 231.96532646 -97.72215046 233.89411188 -97.73498535 235.82286072 C-97.73791847 236.90144317 -97.74085159 237.98002562 -97.7438736 239.09129238 C-98.07546262 242.85699366 -99.07764375 245.72590196 -101.29312134 248.78625488 C-103.67996133 250.48351401 -105.39551274 250.39423629 -108.31005859 250.41992188 C-109.3948349 250.43583374 -110.47961121 250.45174561 -111.59725952 250.46813965 C-113.35509262 250.46844177 -113.35509262 250.46844177 -115.1484375 250.46875 C-116.35311676 250.47636353 -117.55779602 250.48397705 -118.79898071 250.49182129 C-121.34936448 250.50263543 -123.89979258 250.5054701 -126.45019531 250.50097656 C-130.35296606 250.50000548 -134.2537639 250.54159107 -138.15625 250.5859375 C-140.63280839 250.59114519 -143.10937363 250.59383268 -145.5859375 250.59375 C-146.75377777 250.61014526 -147.92161804 250.62654053 -149.12484741 250.64343262 C-150.21592804 250.6341272 -151.30700867 250.62482178 -152.43115234 250.61523438 C-153.38806976 250.61728882 -154.34498718 250.61934326 -155.3309021 250.62145996 C-159.24170681 249.71088694 -160.55203939 248.17536893 -163 245 C-163.73609673 241.71209674 -163.67496417 238.48935691 -163.63491821 235.13122559 C-163.64271817 234.13001096 -163.65051812 233.12879634 -163.65855443 232.09724188 C-163.67851729 228.73828308 -163.66269229 225.38045183 -163.64697266 222.02148438 C-163.65374682 219.61509031 -163.66264882 217.20870142 -163.67352295 214.80232239 C-163.69397527 208.94244335 -163.6909545 203.08285774 -163.67645974 197.22298682 C-163.66516727 192.46053605 -163.6636366 187.69817503 -163.66907883 182.93571472 C-163.66984499 182.25787228 -163.67061116 181.58002984 -163.67140054 180.88164672 C-163.67299917 179.50461802 -163.67462023 178.12758935 -163.6762635 176.7505607 C-163.69052089 163.83844015 -163.67412852 150.9264971 -163.64726166 138.01440567 C-163.62492281 126.9354589 -163.62880294 115.85677407 -163.65185547 104.77783203 C-163.67861375 91.91189908 -163.6891476 79.0461217 -163.67379415 66.18016481 C-163.67220141 64.80820499 -163.67062955 63.43624515 -163.66907883 62.06428528 C-163.66830745 61.38925676 -163.66753607 60.71422825 -163.66674132 60.01874432 C-163.66242437 55.26206658 -163.66971069 50.50548753 -163.68147659 45.74882507 C-163.69696491 39.34655089 -163.68593621 32.94465529 -163.65700531 26.54242516 C-163.65038362 24.19019583 -163.65231051 21.83792494 -163.66331863 19.48571205 C-163.67694206 16.27949969 -163.65989538 13.07488444 -163.63491821 9.86877441 C-163.64607182 8.93346689 -163.65722543 7.99815936 -163.66871703 7.03450918 C-163.60012815 2.50897368 -163.46855612 0.60506928 -160.61680412 -3.07753658 C-157.70784404 -5.21463553 -156.39318706 -5.62720858 -152.83007812 -5.63110352 C-151.32326477 -5.64990318 -151.32326477 -5.64990318 -149.78601074 -5.66908264 C-148.7119397 -5.65582443 -147.63786865 -5.64256622 -146.53125 -5.62890625 C-145.41818481 -5.63131821 -144.30511963 -5.63373016 -143.1583252 -5.63621521 C-140.80815056 -5.63523697 -138.45795282 -5.62184901 -136.10791016 -5.59692383 C-132.5125493 -5.56261974 -128.91964683 -5.57626705 -125.32421875 -5.59570312 C-123.03905205 -5.58880453 -120.75389168 -5.57913204 -118.46875 -5.56640625 C-117.39467896 -5.57136612 -116.32060791 -5.57632599 -115.21398926 -5.58143616 C-110.8760708 -5.51305006 -107.76640804 -5.37019956 -103.82739258 -3.4675293 C-101.3076785 -0.06515786 -101.27142537 2.96604654 -101.29296875 7.046875 C-101.27784744 7.81807678 -101.26272614 8.58927856 -101.24714661 9.3838501 C-101.20426505 11.83953069 -101.19543194 14.2939823 -101.1875 16.75 C-101.16435579 18.41800143 -101.1389906 20.08597363 -101.11132812 21.75390625 C-101.04847218 25.83604614 -101.01614044 29.9174189 -101 34 C-100.46818115 32.87440674 -99.9363623 31.74881348 -99.38842773 30.58911133 C-95.41724756 22.22725395 -91.28978574 14.89186299 -85 8 C-84.18982422 7.05253906 -84.18982422 7.05253906 -83.36328125 6.0859375 C-63.58423102 -15.6566504 -23.19505518 -15.93553409 0 0 Z " fill="#232F3E" transform="translate(1472,283)"/>
<path d="M0 0 C1.28543701 0.00563965 2.57087402 0.0112793 3.89526367 0.01708984 C12.88678022 0.13224145 21.1126569 0.63614017 29.75 3.3125 C30.38615234 3.50585938 31.02230469 3.69921875 31.67773438 3.8984375 C46.60571984 8.56253325 58.52986501 16.41641223 69.75 27.3125 C70.66652344 28.13621094 70.66652344 28.13621094 71.6015625 28.9765625 C95.1529757 50.80732451 104.72061002 87.40374082 106.75 118.3125 C106.93471317 123.41651164 106.99558421 128.51802329 107 133.625 C107.00067474 134.3301474 107.00134949 135.0352948 107.00204468 135.7618103 C106.9646531 160.48253504 102.704554 184.03427115 91.75 206.3125 C91.193125 207.45460938 90.63625 208.59671875 90.0625 209.7734375 C77.54496869 234.17103325 57.24611569 252.86155722 31.0703125 261.53125 C4.90729967 269.27505929 -24.12096229 267.29863635 -48.25 254.3125 C-75.5463667 238.54405802 -91.28537244 211.00380595 -99.25 181.3125 C-99.45109375 180.56693848 -99.6521875 179.82137695 -99.859375 179.05322266 C-110.9990246 136.2540115 -106.5606135 86.61689512 -84.75 47.875 C-81.60645323 42.69862632 -78.15045461 37.94071239 -74.25 33.3125 C-73.25033203 32.09433594 -73.25033203 32.09433594 -72.23046875 30.8515625 C-54.0347978 9.54131725 -27.51423541 -0.12595621 0 0 Z M-23.25 61.3125 C-35.53407309 79.73860964 -35.60200223 103.81411399 -35.51074219 125.1496582 C-35.50005037 128.11104985 -35.51068881 131.07183005 -35.5234375 134.03320312 C-35.5696062 174.55760735 -35.5696062 174.55760735 -17.25 209.3125 C-9.58686716 215.19744732 -2.80920016 216.0654507 6.75 215.3125 C14.49011105 213.61529688 20.0282878 209.60484412 24.75 203.3125 C45.15842759 170.88438499 41.04033136 117.60764576 33.41625977 81.86914062 C30.73728244 70.37503493 26.76747631 59.46292941 16.3125 52.9375 C1.46948981 46.16700412 -12.51913569 48.78078129 -23.25 61.3125 Z " fill="#232F3E" transform="translate(1168.25,272.6875)"/>
<path d="M0 0 C3.96542831 1.62137317 7.60886247 3.73130477 11.3125 5.875 C13.46829111 7.08154945 15.62454598 8.28727063 17.78125 9.4921875 C18.84085938 10.0912793 19.90046875 10.69037109 20.9921875 11.30761719 C92.2051909 51.37649215 172.37131027 78.14645517 334 103 C334.72823975 103.05951843 335.45647949 103.11903687 336.20678711 103.18035889 C375.27444618 106.3239232 414.94826098 106.39423344 454 103 C454.7331543 102.93683594 455.46630859 102.87367188 456.22167969 102.80859375 C530.38249954 96.34605328 602.75272625 79.54413445 672.3984375 53.32421875 C673.46628731 52.92259018 673.46628731 52.92259018 674.55570984 52.5128479 C678.26365095 51.10052777 681.9243681 49.61665517 685.55957031 48.02587891 C686.68608505 47.53895317 686.68608505 47.53895317 687.83535767 47.04219055 C689.25062479 46.42555539 690.66013491 45.79543542 692.06185913 45.14860535 C697.00702182 42.99793039 701.61698067 42.24128484 707 43 C710.8026029 45.0050088 712.61790841 46.42686262 715 50 C715.3359375 52.05078125 715.3359375 52.05078125 715.375 54.3125 C715.40335938 55.05113281 715.43171875 55.78976562 715.4609375 56.55078125 C714.35318182 62.43690675 710.32921426 65.85010652 705.6730957 69.1328125 C704.97659912 69.60460937 704.28010254 70.07640625 703.5625 70.5625 C702.8202417 71.07425781 702.0779834 71.58601562 701.31323242 72.11328125 C627.07669446 122.73573477 540.44845408 149.57102012 452 161 C450.94211273 161.13952087 450.94211273 161.13952087 449.862854 161.28186035 C406.64703123 166.93806228 360.22481433 166.34624399 317 161 C316.30372498 160.91514343 315.60744995 160.83028687 314.89007568 160.74285889 C232.8123962 150.65385619 153.79923784 124.31162505 0.85668945 22.15991211 C-1.65635593 19.99121883 -4.16695801 17.87022171 -6.7890625 15.83203125 C-9.18449153 13.84712628 -10.8098025 12.22516831 -11.30078125 9.0625 C-11.33146067 3.66292135 -11.33146067 3.66292135 -10 1 C-6.68532253 -0.65733874 -3.57121546 -0.58833624 0 0 Z " fill="#232F3E" transform="translate(222,559)"/>
<path d="M0 0 C0.65411267 -0.00709439 1.30822535 -0.01418877 1.98215961 -0.02149814 C4.16668871 -0.03905388 6.34943261 -0.02098889 8.53393555 -0.00291443 C10.10290333 -0.00805426 11.67186534 -0.01533602 13.24081421 -0.02459717 C17.49713395 -0.04311165 21.75282728 -0.03017262 26.00912094 -0.01050687 C30.46442136 0.00588071 34.91968213 -0.00293341 39.375 -0.00802612 C46.85679122 -0.01254697 54.33833242 0.00332211 61.82006836 0.03126526 C70.46857969 0.06331719 79.1166401 0.06330144 87.76518345 0.04605049 C96.08662632 0.03018375 104.40790395 0.03691989 112.7293396 0.0539875 C116.26993206 0.06085804 119.81039207 0.05982554 123.35098267 0.05244255 C127.52080581 0.04477832 131.69011613 0.05690994 135.85985184 0.08429146 C137.38966983 0.09117499 138.91953572 0.09127355 140.44935226 0.08407593 C142.53890892 0.07537802 144.62688409 0.09133937 146.71630859 0.11352539 C147.88510056 0.11633231 149.05389252 0.11913923 150.25810242 0.12203121 C154.02502327 0.73707145 155.68558668 1.94572854 158.3581543 4.62818909 C160.15449672 10.01721636 159.58389682 15.86899545 159.59838867 21.51417542 C159.6080461 23.79018882 159.63905625 26.06527999 159.6706543 28.34107971 C159.77632118 41.68895031 156.81443202 48.55627989 149.0456543 59.37818909 C148.3336084 60.38534973 147.6215625 61.39251038 146.88793945 62.43019104 C145.4225338 64.50262821 143.95377888 66.5727012 142.48168945 68.64039612 C139.37305971 73.01420743 136.30437557 77.41557822 133.2331543 81.81568909 C132.08508838 83.45527225 130.93665159 85.09459579 129.7878418 86.73365784 C126.3094686 91.69723487 122.83363892 96.66258922 119.3581543 101.62818909 C118.19149855 103.2948634 117.02483189 104.96153007 115.8581543 106.62818909 C115.2806543 107.45318909 114.7031543 108.27818909 114.1081543 109.12818909 C92.2331543 140.37818909 92.2331543 140.37818909 70.3581543 171.62818909 C71.1423877 171.67306458 71.92662109 171.71794006 72.73461914 171.76417542 C97.76742592 173.23593877 121.83716674 175.44453089 145.0456543 185.62818909 C145.7759082 185.94811829 146.50616211 186.26804749 147.25854492 186.59767151 C154.49968553 189.91764405 160.38882551 192.87351986 163.3581543 200.62818909 C163.80137661 204.04813191 163.82616421 207.43669634 163.8269043 210.88209534 C163.83451782 211.86056931 163.84213135 212.83904327 163.84997559 213.84716797 C163.86074849 215.90883337 163.86364116 217.97055321 163.85913086 220.03224182 C163.85815628 223.18428719 163.89985747 226.33391525 163.9440918 229.48561096 C163.94929752 231.49276736 163.95198701 233.49993219 163.9519043 235.50709534 C163.96829956 236.44678665 163.98469482 237.38647797 164.00158691 238.35464478 C163.9530974 242.94642882 163.85621568 244.97807334 160.98706055 248.72315979 C158.3581543 250.62818909 158.3581543 250.62818909 155.7019043 251.22975159 C150.69850082 250.32960657 146.43593199 248.16107055 141.8581543 246.00318909 C130.60059851 240.92118626 119.41401685 237.27526182 107.3581543 234.62818909 C106.57005371 234.45174866 105.78195312 234.27530823 104.9699707 234.09352112 C82.76614618 229.36002039 57.49130366 229.77761105 35.3581543 234.62818909 C34.57762695 234.79447815 33.79709961 234.96076721 32.99291992 235.13209534 C19.37276507 238.12431813 6.43543623 242.9507191 -5.9621582 249.33912659 C-9.48803461 251.03524789 -11.77615066 251.190472 -15.6418457 250.62818909 C-18.59919078 248.5819371 -20.37554904 246.96430753 -21.09594727 243.34977722 C-21.27194785 240.47866766 -21.28207129 237.64891138 -21.2355957 234.77272034 C-21.23563599 233.71590561 -21.23567627 232.65909088 -21.23571777 231.57025146 C-21.23036194 229.33519037 -21.2127767 227.10012979 -21.18383789 224.86524963 C-21.14220362 221.46987783 -21.14275411 218.07650606 -21.1496582 214.68092346 C-21.1391569 212.50317548 -21.12621376 210.32543763 -21.1105957 208.14772034 C-21.11039429 207.14320328 -21.11019287 206.13868622 -21.10998535 205.10372925 C-20.96657736 196.41443048 -19.44597682 188.44596987 -14.3293457 181.25318909 C-13.62165039 180.24127502 -12.91395508 179.22936096 -12.18481445 178.18678284 C-11.78439941 177.62716858 -11.38398437 177.06755432 -10.97143555 176.49098206 C-9.48825623 174.41300588 -8.02695592 172.32063801 -6.56762695 170.22584534 C-4.21336745 166.848904 -1.85215394 163.47699156 0.5144043 160.10865784 C4.47989445 154.46068431 8.42044031 148.7955487 12.3581543 143.12818909 C17.91267177 135.13658048 23.48368556 127.15682598 29.0690918 119.18678284 C34.19209181 111.87317874 39.29034134 104.54248646 44.38623047 97.2099762 C49.31565474 90.11956114 54.26174173 83.04101136 59.22729492 75.97584534 C62.87655857 70.77438548 66.48388832 65.54484749 70.08154297 60.30763245 C70.84432682 59.19765522 70.84432682 59.19765522 71.62252045 58.06525421 C72.86788119 56.25300179 74.11308853 54.44064417 75.3581543 52.62818909 C74.34195511 52.63707153 73.32575592 52.64595398 72.27876282 52.65510559 C62.70017316 52.73620644 53.12165319 52.79616169 43.54279804 52.83543777 C38.61823017 52.85630893 33.69393955 52.88461805 28.76953125 52.9299469 C24.01681482 52.97342136 19.26436501 52.99732974 14.51146507 53.00769806 C12.69855744 53.01508655 10.88566433 53.02951463 9.07287025 53.05110931 C6.53263489 53.08016495 3.99349992 53.08414425 1.453125 53.08229065 C0.70434082 53.09667175 -0.04444336 53.11105286 -0.81591797 53.12586975 C-4.3862456 53.0976966 -6.51315582 52.70448976 -9.60734558 50.86993408 C-11.83915197 48.41078417 -12.27133551 47.55808819 -12.28881836 44.3061676 C-12.30457916 43.46171585 -12.32033997 42.6172641 -12.33657837 41.7472229 C-12.32645721 40.8429808 -12.31633606 39.93873871 -12.3059082 39.00709534 C-12.31069183 38.07018356 -12.31547546 37.13327179 -12.32040405 36.16796875 C-12.32380323 34.18846456 -12.31459954 32.20890424 -12.29370117 30.22950745 C-12.2669653 27.20422146 -12.29343229 24.18265566 -12.32543945 21.15748596 C-12.32213477 19.23234758 -12.31572732 17.30721151 -12.3059082 15.38209534 C-12.31602936 14.47987747 -12.32615051 13.57765961 -12.33657837 12.64810181 C-12.32081757 11.80049789 -12.30505676 10.95289398 -12.28881836 10.0796051 C-12.28484039 9.3388826 -12.28086243 8.5981601 -12.27676392 7.83499146 C-10.49494628 1.64187982 -5.91095198 0.00296515 0 0 Z " fill="#232F3E" transform="translate(878.641845703125,276.37181091308594)"/>
<path d="M0 0 C8.42456856 14.84328745 0.95771208 40.70755167 -3 56 C-11.02656691 83.85483331 -23.88741083 108.82050193 -44.3125 129.5625 C-44.8163623 130.07586914 -45.32022461 130.58923828 -45.83935547 131.11816406 C-49.48206478 134.72801232 -51.98112718 136.83849017 -57.125 137.25 C-60 137 -60 137 -62 135 C-62.38706353 130.0861047 -61.73326001 126.46853344 -59.91015625 121.921875 C-59.23460693 120.20109741 -59.23460693 120.20109741 -58.54541016 118.44555664 C-58.0560498 117.22602295 -57.56668945 116.00648926 -57.0625 114.75 C-56.04247464 112.14251713 -55.0341368 109.53058549 -54.02734375 106.91796875 C-53.64394836 105.92590675 -53.64394836 105.92590675 -53.25280762 104.9138031 C-38.57533041 68.8515072 -38.57533041 68.8515072 -37.71484375 30.6875 C-38.75498741 27.84696546 -38.75498741 27.84696546 -41.29296875 26.72265625 C-42.18628906 26.48417969 -43.07960938 26.24570312 -44 26 C-44.86238281 25.73058594 -45.72476563 25.46117187 -46.61328125 25.18359375 C-47.50402344 24.93738281 -48.39476562 24.69117188 -49.3125 24.4375 C-50.19550781 24.18871094 -51.07851563 23.93992187 -51.98828125 23.68359375 C-77.10617331 17.98238608 -105.82636045 22.68343704 -131.1484375 25.58203125 C-134.241164 25.91765167 -137.26695013 26.18964952 -140.375 26.25 C-141.18710937 26.27578125 -141.99921875 26.3015625 -142.8359375 26.328125 C-145.53188647 25.91935295 -146.39624234 25.17250239 -148 23 C-148.21935442 19.78280189 -147.69707221 17.87082921 -145.66796875 15.3359375 C-117.64527517 -11.40467206 -31.38480861 -27.25522853 0 0 Z " fill="#232F3E" transform="translate(1005,554)"/>
<path d="M0 0 C0.804375 -0.00128906 1.60875 -0.00257812 2.4375 -0.00390625 C3.283125 -0.00003906 4.12875 0.00382812 5 0.0078125 C6.2684375 0.00201172 6.2684375 0.00201172 7.5625 -0.00390625 C8.366875 -0.00261719 9.17125 -0.00132813 10 0 C10.7425 0.00112793 11.485 0.00225586 12.25 0.00341797 C14 0.1328125 14 0.1328125 15 1.1328125 C15.12272849 2.72795143 15.17781043 4.32836182 15.20532227 5.92797852 C15.22526749 6.94896133 15.24521271 7.96994415 15.26576233 9.02186584 C15.28247482 10.1322673 15.29918732 11.24266876 15.31640625 12.38671875 C15.33718735 13.51730209 15.35796844 14.64788544 15.37937927 15.81272888 C15.44499797 19.44019235 15.50381677 23.06773083 15.5625 26.6953125 C15.60567351 29.14779436 15.6492874 31.6002685 15.69335938 34.05273438 C15.80069184 40.07934677 15.9024349 46.10603451 16 52.1328125 C16.61302475 51.71663666 17.2260495 51.30046082 17.85765076 50.87167358 C19.0678463 50.0561351 19.0678463 50.0561351 20.30249023 49.22412109 C21.10113998 48.68419525 21.89978973 48.14426941 22.72264099 47.58798218 C32.83147142 41.12871797 45.32518818 40.9088322 56.8515625 42.53515625 C66.01185145 44.75979785 73.70418964 50.64466983 78.9375 58.3828125 C88.14250117 74.2763397 89.79617417 95.021102 85.375 112.7578125 C82.09015413 124.67575509 76.09411473 135.16461873 65.33984375 141.765625 C54.22785118 147.49345622 40.43178425 148.22958566 28.4375 144.5703125 C22.69000542 142.32481744 17.82686004 138.93449872 13 135.1328125 C12.7834375 137.081875 12.7834375 137.081875 12.5625 139.0703125 C12.125 143.0078125 12.125 143.0078125 11 144.1328125 C8.48863896 144.23256282 6.01096585 144.27163433 3.5 144.2578125 C2.44619141 144.26361328 2.44619141 144.26361328 1.37109375 144.26953125 C-3.87338622 144.25942628 -3.87338622 144.25942628 -5 143.1328125 C-5.09864348 141.30017902 -5.12632145 139.4637042 -5.12698364 137.62841797 C-5.12980347 136.43367859 -5.13262329 135.23893921 -5.13552856 134.00799561 C-5.13358397 132.67199692 -5.13153579 131.33599838 -5.12939453 130 C-5.13074855 128.60247756 -5.13252848 127.20495548 -5.13470459 125.80743408 C-5.13927892 122.00175356 -5.13748937 118.19610003 -5.1343255 114.39041901 C-5.1318019 110.41636581 -5.13413944 106.442315 -5.13571167 102.46826172 C-5.13753336 95.79329003 -5.13512706 89.11832939 -5.13037109 82.44335938 C-5.12492847 74.71520286 -5.12669113 66.98707273 -5.1321975 59.25891685 C-5.13672863 52.63557903 -5.13737918 46.01224917 -5.13475883 39.38891029 C-5.13319606 35.42786857 -5.1330023 31.46683927 -5.13629532 27.50579834 C-5.13917404 23.78273019 -5.13719833 20.05969621 -5.13140106 16.33663177 C-5.13007347 14.96637784 -5.13046757 13.59612105 -5.13266373 12.22586823 C-5.13537522 10.36298217 -5.13138042 8.50008987 -5.12698364 6.63720703 C-5.12660662 5.59227081 -5.12622959 4.54733459 -5.12584114 3.47073364 C-4.91599769 -0.42781204 -3.49416184 0.00530797 0 0 Z M16 66.1328125 C14.33595208 67.79686042 14.79594034 69.81769867 14.7277832 72.1081543 C14.69558182 73.16983322 14.66338043 74.23151215 14.63020325 75.32536316 C14.51979861 80.19998767 14.43714017 85.0744721 14.37524414 89.94995117 C14.33355338 92.52163826 14.27215742 95.09308442 14.19067383 97.66381836 C14.07514912 101.36656401 14.02501374 105.06526649 13.98828125 108.76953125 C13.93980545 109.91661057 13.89132965 111.06368988 13.84138489 112.24552917 C13.84884706 115.49747296 13.96191045 118.0483114 15 121.1328125 C21.44577593 127.31516214 31.34634001 130.18565984 40.125 130.5078125 C47.92738599 130.2030318 53.51333735 127.52066897 59.23828125 122.234375 C65.86336844 114.33127764 66.20265703 104.29597087 66.25 94.5078125 C66.270625 93.46496094 66.29125 92.42210937 66.3125 91.34765625 C66.35899829 82.03637358 65.0272438 73.53771203 59 66.1328125 C45.98578706 53.53954445 30.26187643 58.07379501 16 66.1328125 Z " fill="#232F3E" transform="translate(774,-0.1328125)"/>
<path d="M0 0 C0.96583008 -0.01772461 1.93166016 -0.03544922 2.92675781 -0.05371094 C12.58898033 -0.04382125 21.78225156 2.03875908 29.375 8.3125 C38.93815799 18.70300499 37.53640503 32.97847097 37.54296875 46.1796875 C37.54618717 47.70663483 37.54955167 49.23358186 37.55305481 50.76052856 C37.55900942 53.94257321 37.56089814 57.12459081 37.56030273 60.30664062 C37.56020048 64.38548686 37.57393328 68.46416148 37.59107494 72.54296684 C37.60217527 75.68790489 37.60422267 78.83280087 37.60369301 81.9777565 C37.60487299 83.48246994 37.60929579 84.98718446 37.61702538 86.49187851 C37.6268 88.58829786 37.62395918 90.68433652 37.61791992 92.78076172 C37.61934494 93.97273163 37.62076996 95.16470154 37.62223816 96.39279175 C37.375 99.3125 37.375 99.3125 35.375 102.3125 C32.1875 102.67578125 32.1875 102.67578125 28.375 102.625 C26.4878125 102.61919922 26.4878125 102.61919922 24.5625 102.61328125 C21.375 102.3125 21.375 102.3125 19.375 100.3125 C18.66091666 98.32893517 17.98882258 96.32934563 17.375 94.3125 C16.85292969 94.69921875 16.33085938 95.0859375 15.79296875 95.484375 C5.43092424 102.81583907 -5.91237897 106.46094255 -18.625 105.3125 C-28.07238847 103.31213236 -34.56598759 100.70381271 -40.375 92.875 C-44.99733773 84.94671846 -45.55429809 74.65140951 -43.5078125 65.84375 C-40.40249539 56.94000892 -34.41297701 51.32863737 -26.21875 47.05859375 C-13.5027527 41.81507187 3.24966064 43.04697985 16.375 46.3125 C16.45638426 43.43692297 16.51567851 40.56367738 16.5625 37.6875 C16.58763672 36.87925781 16.61277344 36.07101563 16.63867188 35.23828125 C16.7014321 30.09194241 16.0391735 26.85767789 13.375 22.3125 C13.375 21.6525 13.375 20.9925 13.375 20.3125 C-0.7588666 15.6383079 -15.53072636 16.61440879 -29.625 21.3125 C-33.25 21.4375 -33.25 21.4375 -36.625 21.3125 C-38.35719928 19.58030072 -37.83791761 17.29223192 -37.875 14.9375 C-37.91367187 13.47183594 -37.91367187 13.47183594 -37.953125 11.9765625 C-37.625 9.3125 -37.625 9.3125 -36.41796875 7.58984375 C-26.18988983 0.30317315 -12.02142412 0.13395411 0 0 Z M-19.2421875 62.77734375 C-23.53076647 67.73222736 -23.97727041 71.18643432 -23.90234375 77.546875 C-23.51098046 81.44948363 -22.31120197 83.48491898 -19.625 86.3125 C-14.4012947 90.13472339 -8.83792385 90.03963023 -2.625 89.3125 C1.54885376 88.33351286 5.46748479 87.07669509 9.375 85.3125 C10.07641113 85.01625732 10.77782227 84.72001465 11.50048828 84.41479492 C13.8486953 83.24173067 15.55342652 82.20966203 17.375 80.3125 C18.34989612 76.8277411 18.13839581 73.58370267 17.875 70 C17.82085938 68.60297852 17.82085938 68.60297852 17.765625 67.17773438 C17.67156746 64.88508193 17.54039029 62.60092909 17.375 60.3125 C6.5236507 57.89503871 -10.09775285 54.49434135 -19.2421875 62.77734375 Z " fill="#232F3E" transform="translate(705.625,41.6875)"/>
<path d="M0 0 C6.14580763 5.14532731 10.08798622 10.20189927 11.6875 18.25 C12.10127579 24.22153269 12.06186527 30.1732658 12.015625 36.15625 C12.01256333 37.88976884 12.01069031 39.62329014 12.00994873 41.35681152 C12.00536762 44.97104457 11.99101823 48.58505206 11.96875 52.19921875 C11.94029939 56.84096704 11.92951918 61.48253952 11.9250679 66.12436676 C11.92092348 69.69472012 11.91111699 73.26503774 11.89919281 76.83537292 C11.89348434 78.54827081 11.88872754 80.26117214 11.88492584 81.97407532 C11.87808929 84.35582623 11.86447401 86.73743477 11.84863281 89.11914062 C11.84751495 89.83076355 11.84639709 90.54238647 11.84524536 91.27557373 C11.80220065 96.13529935 11.80220065 96.13529935 10.6875 97.25 C8.15700598 97.32313567 5.65445163 97.34247527 3.125 97.3125 C2.05862305 97.30573242 2.05862305 97.30573242 0.97070312 97.29882812 C-0.79040013 97.28700864 -2.55146036 97.26907263 -4.3125 97.25 C-5.3025 94.61 -6.2925 91.97 -7.3125 89.25 C-7.83457031 89.63671875 -8.35664062 90.0234375 -8.89453125 90.421875 C-19.67733008 98.05103564 -31.14178713 101.25075973 -44.3125 100.25 C-53.6894166 98.42035774 -60.92566285 94.24285866 -66.3125 86.25 C-70.50454433 78.22702378 -70.62595993 68.21414871 -68.375 59.5625 C-65.25571579 51.68449383 -59.14449786 45.74284224 -51.5625 42.1875 C-44.71992033 39.37644022 -38.50226427 39.0567074 -31.1875 39.0625 C-30.25059326 39.06258057 -29.31368652 39.06266113 -28.34838867 39.06274414 C-13.44121082 39.18564459 -13.44121082 39.18564459 -7.3125 42.25 C-7.102263 27.87679894 -7.102263 27.87679894 -13 15.375 C-24.36059643 9.84822336 -36.39121494 12.17757504 -48.19433594 14.82666016 C-53.0301503 15.89525904 -57.35856238 16.46393523 -62.3125 16.25 C-62.4205023 14.14695523 -62.49808987 12.04233091 -62.5625 9.9375 C-62.60890625 8.76574219 -62.6553125 7.59398437 -62.703125 6.38671875 C-62.3125 3.25 -62.3125 3.25 -60.75390625 1.46484375 C-57.60337023 -0.10286297 -54.39854575 -1.03294208 -51 -1.875 C-49.72511719 -2.20757812 -48.45023438 -2.54015625 -47.13671875 -2.8828125 C-32.20707251 -6.26828897 -13.83536693 -7.30925045 0 0 Z M-46.875 59.9375 C-49.33861195 65.61451884 -49.95043337 70.08811469 -48.1875 76.0625 C-45.87130131 80.00003778 -43.37685193 82.21782404 -39.3125 84.25 C-30.71930363 85.10372146 -23.15933597 83.83448397 -15.3125 80.25 C-14.26255859 79.80563599 -14.26255859 79.80563599 -13.19140625 79.35229492 C-10.84255159 78.17916673 -9.13579271 77.14636781 -7.3125 75.25 C-6.33726235 71.76535491 -6.5491067 68.52116846 -6.8125 64.9375 C-6.86664062 63.54047852 -6.86664062 63.54047852 -6.921875 62.11523438 C-7.01593254 59.82258193 -7.14710971 57.53842909 -7.3125 55.25 C-19.92791161 52.39542872 -37.00524578 49.58629435 -46.875 59.9375 Z " fill="#232F3E" transform="translate(1151.3125,46.75)"/>
<path d="M0 0 C5.94166251 5.22596225 8.46093003 12.55300554 8.96598816 20.30795288 C8.97470488 21.68883636 8.97271401 23.06981677 8.96166992 24.45068359 C8.96356827 25.21087799 8.96546661 25.97107239 8.96742249 26.75430298 C8.97109996 29.24386204 8.96047437 31.73312355 8.94921875 34.22265625 C8.94802571 35.95903489 8.94757405 37.69541418 8.9478302 39.43179321 C8.94627088 43.05792318 8.93801954 46.68395364 8.92456055 50.31005859 C8.90749526 54.96755304 8.90374866 59.62493911 8.90450573 64.28246117 C8.90423457 67.86138959 8.89876336 71.44029413 8.89150429 75.01921463 C8.88831482 76.73769576 8.88634957 78.45617961 8.88561058 80.17466354 C8.88345425 82.56619696 8.87472777 84.95761275 8.86401367 87.34912109 C8.86446686 88.06388611 8.86492004 88.77865112 8.86538696 89.51507568 C8.83323202 94.39723673 8.83323202 94.39723673 7.71875 95.51171875 C5.18825598 95.58485442 2.68570163 95.60419402 0.15625 95.57421875 C-0.91012695 95.56745117 -0.91012695 95.56745117 -1.99804688 95.56054688 C-3.75915013 95.54872739 -5.52021036 95.53079138 -7.28125 95.51171875 C-8.27125 92.87171875 -9.26125 90.23171875 -10.28125 87.51171875 C-10.97089844 87.98222656 -11.66054688 88.45273438 -12.37109375 88.9375 C-24.35587041 96.87803104 -36.440777 100.379541 -50.84375 97.88671875 C-57.95921789 96.10785178 -64.28635119 91.65771691 -68.28125 85.51171875 C-73.01523734 77.09574126 -73.54288596 67.80661604 -71.34375 58.44921875 C-68.89166894 51.28686104 -63.88934715 45.66080393 -57.421875 41.80859375 C-49.56171401 38.11219372 -42.80631327 37.31814712 -34.21875 37.32421875 C-32.81943237 37.32325195 -32.81943237 37.32325195 -31.3918457 37.32226562 C-24.49908555 37.37489581 -18.01354956 37.95060581 -11.28125 39.51171875 C-11.19960841 36.82359385 -11.14045332 34.13799575 -11.09375 31.44921875 C-11.06861328 30.69705078 -11.04347656 29.94488281 -11.01757812 29.16992188 C-10.94837384 23.841192 -11.73814445 20.22271755 -14.28125 15.51171875 C-21.19278429 9.80219042 -28.67667492 9.96229242 -37.28125 10.51171875 C-43.73067444 11.35963354 -50.25379383 12.45624748 -56.546875 14.10546875 C-59.43471609 14.7819 -62.33189698 14.56843708 -65.28125 14.51171875 C-65.41621251 12.40930272 -65.51322307 10.30442265 -65.59375 8.19921875 C-65.68076172 6.44158203 -65.68076172 6.44158203 -65.76953125 4.6484375 C-65.28125 1.51171875 -65.28125 1.51171875 -63.015625 -0.30859375 C-62.11328125 -0.69789062 -61.2109375 -1.0871875 -60.28125 -1.48828125 C-59.60964844 -1.77832031 -58.93804687 -2.06835938 -58.24609375 -2.3671875 C-40.83663119 -8.23743017 -15.95425217 -10.88681552 0 0 Z M-48.15625 56.57421875 C-51.90118221 61.75103681 -52.60268537 67.06077405 -51.78125 73.32421875 C-49.66249158 77.82658039 -46.77683922 80.26392414 -42.28125 82.51171875 C-32.85883033 83.61837878 -24.82250629 81.44111027 -16.28125 77.51171875 C-15.16234375 77.00640625 -14.0434375 76.50109375 -12.890625 75.98046875 C-9.92104459 73.1709256 -9.87198885 72.63888727 -9.6953125 68.74609375 C-9.73507434 66.91704923 -9.80646934 65.08847234 -9.90625 63.26171875 C-9.93332031 62.32585937 -9.96039062 61.39 -9.98828125 60.42578125 C-10.05890477 58.11874635 -10.15744421 55.81641106 -10.28125 53.51171875 C-22.83021909 50.67434081 -37.16852994 48.69172393 -48.15625 56.57421875 Z " fill="#232F3E" transform="translate(529.28125,48.48828125)"/>
<path d="M0 0 C0.92659424 -0.0093457 1.85318848 -0.01869141 2.80786133 -0.02832031 C13.17018864 0.01977761 21.45129615 1.8621572 29.8125 8.25 C35.60979081 14.27755704 37.11916917 21.03537956 37.05541992 29.2590332 C37.05731827 30.03858871 37.05921661 30.81814423 37.06117249 31.62132263 C37.064858 34.18124657 37.05421181 36.74088283 37.04296875 39.30078125 C37.04177606 41.08342963 37.04132398 42.86607865 37.0415802 44.64872742 C37.04001943 48.37498945 37.03175764 52.10115484 37.01831055 55.82739258 C37.00125952 60.61383039 36.99749818 65.40016275 36.99825573 70.18662739 C36.99798454 73.86249302 36.99251261 77.53833541 36.98525429 81.21419334 C36.98206416 82.980123 36.98009941 84.7460553 36.97936058 86.51198769 C36.97720413 88.97068453 36.96847695 91.42926699 36.95776367 93.88793945 C36.95821686 94.62297699 36.95867004 95.35801453 36.95913696 96.11532593 C36.92698033 101.13551967 36.92698033 101.13551967 35.8125 102.25 C33.50256618 102.37557162 31.18831464 102.42575729 28.875 102.4375 C27.60785156 102.45167969 26.34070313 102.46585937 25.03515625 102.48046875 C21.8125 102.25 21.8125 102.25 19.8125 100.25 C19.09841666 98.26643517 18.42632258 96.26684563 17.8125 94.25 C17.29042969 94.63671875 16.76835937 95.0234375 16.23046875 95.421875 C5.85987096 102.75939077 -5.46791392 106.38453594 -18.1875 105.25 C-27.25485043 103.40489962 -34.37481406 100.83927782 -39.6796875 93.0625 C-44.49622033 84.57234044 -45.32481133 75.07562885 -43.03515625 65.62890625 C-40.29172513 57.92959955 -35.19488546 52.3310803 -28.1875 48.25 C-20.56209159 44.71458338 -13.89460407 44.05701345 -5.625 44.0625 C-4.63806152 44.06185547 -3.65112305 44.06121094 -2.63427734 44.06054688 C4.04289643 44.10903601 10.31680964 44.63812212 16.8125 46.25 C16.89388426 43.37442297 16.95317851 40.50117738 17 37.625 C17.02513672 36.81675781 17.05027344 36.00851563 17.07617188 35.17578125 C17.13809882 30.09777168 16.67021068 26.63360773 13.8125 22.25 C6.79073011 16.60205465 -0.50865432 16.69643038 -9.1875 17.25 C-15.87533551 18.12271958 -22.78514879 19.11588293 -29.1875 21.25 C-32.8125 21.375 -32.8125 21.375 -36.1875 21.25 C-37.91969928 19.51780072 -37.40041761 17.22973192 -37.4375 14.875 C-37.47617187 13.40933594 -37.47617187 13.40933594 -37.515625 11.9140625 C-37.1875 9.25 -37.1875 9.25 -35.98046875 7.52734375 C-25.86871948 0.32354852 -11.89531618 0.08301126 0 0 Z M-20.125 63.75 C-23.68319834 68.06296769 -23.52880127 72.13999283 -23.46484375 77.51953125 C-23.07040597 81.40279894 -21.85969615 83.43716195 -19.1875 86.25 C-13.9637947 90.07222339 -8.40042385 89.97713023 -2.1875 89.25 C1.98635376 88.27101286 5.90498479 87.01419509 9.8125 85.25 C10.51391113 84.95375732 11.21532227 84.65751465 11.93798828 84.35229492 C14.2861953 83.17923067 15.99092652 82.14716203 17.8125 80.25 C18.78739612 76.7652411 18.57589581 73.52120267 18.3125 69.9375 C18.25835937 68.54047852 18.25835937 68.54047852 18.203125 67.11523438 C18.10906746 64.82258193 17.97789029 62.53842909 17.8125 60.25 C5.53471797 57.47393866 -9.8494386 55.00484137 -20.125 63.75 Z " fill="#232F3E" transform="translate(301.1875,41.75)"/>
<path d="M0 0 C8.14335468 6.74632756 12.3792725 14.70251312 14.2265625 25.08203125 C14.4885866 28.2759564 14.50723886 31.44140826 14.4765625 34.64453125 C14.48816406 35.86172852 14.48816406 35.86172852 14.5 37.10351562 C14.49742187 37.90208984 14.49484375 38.70066406 14.4921875 39.5234375 C14.48993164 40.23185791 14.48767578 40.94027832 14.48535156 41.67016602 C14.2265625 44.08203125 14.2265625 44.08203125 12.2265625 51.08203125 C-8.8934375 51.08203125 -30.0134375 51.08203125 -51.7734375 51.08203125 C-49.01724902 67.14929699 -49.01724902 67.14929699 -38.7734375 78.08203125 C-26.51932257 83.83592804 -14.17231544 82.64288865 -1.25 79.8203125 C2.92631447 78.93343224 6.96923117 78.37564031 11.2265625 78.08203125 C13.03306151 79.88853026 12.48353216 82.51954167 12.5390625 84.95703125 C12.57644531 86.02695313 12.61382813 87.096875 12.65234375 88.19921875 C12.2265625 91.08203125 12.2265625 91.08203125 10.6015625 92.83203125 C7.76253262 94.3262575 4.98935741 95.28914064 1.9140625 96.20703125 C0.28017578 96.70589844 0.28017578 96.70589844 -1.38671875 97.21484375 C-16.93396009 101.19579828 -36.60096974 101.187584 -50.90625 93.29296875 C-62.48708046 85.78238833 -67.66003026 75.28548603 -70.7734375 62.08203125 C-71.35673226 58.73911509 -71.64891168 55.47129919 -71.7734375 52.08203125 C-71.81339844 51.23382813 -71.85335937 50.385625 -71.89453125 49.51171875 C-72.30759313 32.84345687 -68.66925737 17.46386374 -57.1484375 5.01953125 C-43.27914119 -8.43806053 -15.9749193 -11.04744419 0 0 Z M-44.7734375 17.08203125 C-49.40358509 22.46301358 -51.7734375 29.98654175 -51.7734375 37.08203125 C-45.0982341 37.1073007 -38.42304293 37.12486393 -31.74780273 37.13696289 C-29.47501159 37.1420045 -27.2022237 37.14883762 -24.92944336 37.1574707 C-21.67040199 37.16954386 -18.41140333 37.17526112 -15.15234375 37.1796875 C-14.12943741 37.18484879 -13.10653107 37.19001007 -12.05262756 37.19532776 C-11.11172775 37.19540329 -10.17082794 37.19547882 -9.20141602 37.19555664 C-8.36868668 37.19777725 -7.53595734 37.19999786 -6.67799377 37.20228577 C-4.76310476 37.29207957 -4.76310476 37.29207957 -3.7734375 36.08203125 C-3.69982511 26.88048194 -5.13615561 19.973077 -11.4609375 13.20703125 C-22.41521192 6.17976087 -35.57577979 8.40696773 -44.7734375 17.08203125 Z " fill="#232F3E" transform="translate(1001.7734375,47.91796875)"/>
<path d="M0 0 C1.1653125 -0.02578125 2.330625 -0.0515625 3.53125 -0.078125 C4.5109375 0.03015625 5.490625 0.1384375 6.5 0.25 C8.79755922 3.69633882 8.73643976 4.96068391 8.6953125 9.01171875 C8.68886719 10.12998047 8.68242188 11.24824219 8.67578125 12.40039062 C8.65902344 13.56763672 8.64226562 14.73488281 8.625 15.9375 C8.61597656 17.11634766 8.60695313 18.29519531 8.59765625 19.50976562 C8.57406423 22.42338026 8.5411454 25.33658892 8.5 28.25 C9.71115479 28.23428955 9.71115479 28.23428955 10.94677734 28.21826172 C14.58948682 28.17680169 18.23214675 28.15070562 21.875 28.125 C23.78152344 28.09986328 23.78152344 28.09986328 25.7265625 28.07421875 C27.54414062 28.06455078 27.54414062 28.06455078 29.3984375 28.0546875 C30.51911621 28.04421387 31.63979492 28.03374023 32.79443359 28.02294922 C35.5 28.25 35.5 28.25 37.5 30.25 C37.765625 33 37.765625 33 37.75 36.25 C37.75773437 37.85875 37.75773437 37.85875 37.765625 39.5 C37.5 42.25 37.5 42.25 35.5 44.25 C32.79443359 44.47705078 32.79443359 44.47705078 29.3984375 44.4453125 C28.18671875 44.43886719 26.975 44.43242188 25.7265625 44.42578125 C23.82003906 44.40064453 23.82003906 44.40064453 21.875 44.375 C20.59625 44.36597656 19.3175 44.35695312 18 44.34765625 C14.83314833 44.32402303 11.66666576 44.29107629 8.5 44.25 C8.53805368 52.26503034 8.59740917 60.27949991 8.68390274 68.29413986 C8.72339827 72.01577254 8.75557618 75.73716789 8.77099609 79.45898438 C8.78614961 83.0513727 8.82057024 86.64310868 8.86830902 90.2352066 C8.88313661 91.60505755 8.89104181 92.97500163 8.89188385 94.34493256 C8.89425071 96.26489632 8.92359812 98.18476929 8.95410156 100.10449219 C8.96298401 101.19703308 8.97186646 102.28957397 8.98101807 103.41522217 C9.62293398 106.92148875 10.72038495 108.08349014 13.5 110.25 C16.44131891 111.23043964 18.32501665 111.36621202 21.38671875 111.34765625 C22.32451172 111.34443359 23.26230469 111.34121094 24.22851562 111.33789062 C25.20498047 111.32951172 26.18144531 111.32113281 27.1875 111.3125 C28.17556641 111.30798828 29.16363281 111.30347656 30.18164062 111.29882812 C32.62115474 111.28704303 35.06054689 111.27059011 37.5 111.25 C37.6080023 113.35304477 37.68558987 115.45766909 37.75 117.5625 C37.79640625 118.73425781 37.8428125 119.90601563 37.890625 121.11328125 C37.5 124.25 37.5 124.25 35.875 126.09375 C26.07979621 130.86246764 12.74011701 130.19487025 2.5 127.25 C-2.55798374 125.21112283 -6.85397815 122.08205576 -9.5 117.25 C-12.58947328 108.48317778 -12.905015 99.94162551 -12.79296875 90.734375 C-12.78735611 89.38389564 -12.78309393 88.03341008 -12.78010559 86.68292236 C-12.76878765 83.17134995 -12.73943768 79.66016472 -12.70599365 76.14874268 C-12.67500676 72.54843377 -12.66153987 68.94806078 -12.64648438 65.34765625 C-12.61455159 58.31494818 -12.56351892 51.2824997 -12.5 44.25 C-13.63179687 44.28480469 -14.76359375 44.31960937 -15.9296875 44.35546875 C-17.41144353 44.38360336 -18.89321556 44.41090387 -20.375 44.4375 C-21.12136719 44.46263672 -21.86773438 44.48777344 -22.63671875 44.51367188 C-24.8046875 44.54296875 -24.8046875 44.54296875 -28.5 44.25 C-30.49825961 41.25261059 -30.77550398 40.61652492 -30.75 37.25 C-30.75515625 36.569375 -30.7603125 35.88875 -30.765625 35.1875 C-30.5 33.25 -30.5 33.25 -28.5 30.25 C-25.57832766 29.7047378 -22.82175764 29.32321151 -19.875 29.0625 C-19.07320312 28.98064453 -18.27140625 28.89878906 -17.4453125 28.81445312 C-15.46474429 28.61403849 -13.48248968 28.4304193 -11.5 28.25 C-11.45101563 27.30640625 -11.40203125 26.3628125 -11.3515625 25.390625 C-10.33918793 8.0057099 -10.33918793 8.0057099 -8.5 1.25 C-5.65504507 -0.17247747 -3.1688204 0.04206399 0 0 Z " fill="#232F3E" transform="translate(1208.5,16.75)"/>
<path d="M0 0 C2.91889148 -0.16216064 5.82879225 -0.28091202 8.75 -0.375 C9.9875 -0.45041016 9.9875 -0.45041016 11.25 -0.52734375 C12.44882812 -0.55634766 12.44882812 -0.55634766 13.671875 -0.5859375 C14.77160645 -0.63306885 14.77160645 -0.63306885 15.89355469 -0.68115234 C18.58333311 0.18862997 19.5785813 1.601091 21.00671387 3.98455811 C23.12631962 8.28537546 24.59095936 12.82613999 26.1171875 17.36328125 C26.49682648 18.46866745 26.87646545 19.57405365 27.26760864 20.7129364 C28.47820944 24.24340241 29.67689489 27.77777628 30.875 31.3125 C31.67236531 33.64676183 32.47053484 35.98074911 33.26953125 38.31445312 C34.43689989 41.72423656 35.6031016 45.13437567 36.76385498 48.54641724 C38.44784763 53.49326631 40.14339435 58.43400907 41.90722656 63.35302734 C42.19131378 64.14557419 42.475401 64.93812103 42.76809692 65.75468445 C43.28477975 67.1882449 43.80552423 68.62035124 44.33126831 70.0506134 C45.34508936 72.85967688 46 74.98437756 46 78 C46.66 78 47.32 78 48 78 C48.13087006 77.27894073 48.26174011 76.55788147 48.39657593 75.81497192 C48.97878878 73.09895029 49.74578113 70.58338983 50.65478516 67.96044922 C50.99248932 66.98107391 51.33019348 66.00169861 51.6781311 64.99264526 C52.04473846 63.9406192 52.41134583 62.88859314 52.7890625 61.8046875 C53.17057465 60.7026297 53.55208679 59.6005719 53.94515991 58.46511841 C54.75566819 56.12610878 55.56777247 53.78765167 56.38134766 51.44970703 C57.60313566 47.93784602 58.81958469 44.42417311 60.03515625 40.91015625 C63.61897074 30.56813448 67.22931738 20.23506232 70.9609375 9.9453125 C71.24192291 9.15929657 71.52290833 8.37328064 71.81240845 7.56344604 C73.76617179 2.23382821 73.76617179 2.23382821 76 0 C77.87939453 -0.22705078 77.87939453 -0.22705078 80.1328125 -0.1953125 C81.34130859 -0.18564453 81.34130859 -0.18564453 82.57421875 -0.17578125 C83.83685547 -0.15064453 83.83685547 -0.15064453 85.125 -0.125 C86.39923828 -0.11146484 86.39923828 -0.11146484 87.69921875 -0.09765625 C89.79959884 -0.07405647 91.89983444 -0.03818483 94 0 C94.76168933 7.12941217 92.04223807 12.63873341 89.3125 19.125 C88.51389516 21.06135463 87.72013767 22.99965245 86.92672729 24.93814087 C86.3293226 26.39763324 85.73057158 27.85657509 85.13064575 29.31503296 C82.24561909 36.34629865 79.45251924 43.41281195 76.66796875 50.484375 C76.20296463 51.66430023 75.73796051 52.84422546 75.25886536 54.05990601 C73.36879018 58.85710872 71.47942977 63.65458601 69.59414673 68.45367432 C68.25364956 71.86369071 66.90851102 75.27184447 65.5625 78.6796875 C65.16181808 79.70261902 64.76113617 80.72555054 64.34831238 81.77947998 C58.5369562 96.4630438 58.5369562 96.4630438 56 99 C54.58429877 99.08651611 53.164405 99.10704904 51.74609375 99.09765625 C50.89208984 99.09443359 50.03808594 99.09121094 49.15820312 99.08789062 C48.26037109 99.07951172 47.36253906 99.07113281 46.4375 99.0625 C45.53580078 99.05798828 44.63410156 99.05347656 43.70507812 99.04882812 C41.46998366 99.03700223 39.23503507 99.01968245 37 99 C32.82758755 91.17600595 29.69188382 82.94169917 26.44140625 74.70703125 C25.80920592 73.11281457 25.17670847 71.5187157 24.54393005 69.92472839 C22.88391784 65.7405496 21.22828861 61.55464967 19.57348633 57.3684082 C18.2334063 53.98050726 16.8901918 50.59385359 15.54679966 47.2072649 C13.92724728 43.12428466 12.30913743 39.04073337 10.69140625 34.95703125 C10.2388103 33.81468993 10.2388103 33.81468993 9.777071 32.64927101 C8.36181761 29.07556527 6.95063915 25.50040364 5.54910278 21.92129517 C4.53905388 19.34651164 3.50115553 16.78602646 2.43795776 14.23275757 C1.96979645 13.0843338 1.50163513 11.93591003 1.01928711 10.75268555 C0.60400253 9.75714157 0.18871796 8.7615976 -0.239151 7.73588562 C-1.07851226 4.71768306 -0.87059369 2.97581012 0 0 Z " fill="#232F3E" transform="translate(353,45)"/>
<path d="M0 0 C6.27 0 12.54 0 19 0 C19.98487988 2.95463963 20.13372831 4.89690981 20.15148926 7.97889709 C20.15983292 9.00665756 20.16817657 10.03441803 20.17677307 11.09332275 C20.1830497 12.78361603 20.1830497 12.78361603 20.18945312 14.50805664 C20.19774643 15.69521774 20.20603973 16.88237885 20.21458435 18.10551453 C20.2365511 21.36155732 20.25425232 24.61759215 20.27039146 27.87366796 C20.28854715 31.27871649 20.3129958 34.68371865 20.33703613 38.08872986 C20.40222936 47.48360167 20.45768373 56.87852629 20.51302338 66.27346039 C20.56384881 74.88627477 20.61671239 83.49906324 20.67754889 92.11181349 C20.70126799 95.50331035 20.72284505 98.89479431 20.73963928 102.28633308 C20.75894344 106.06470973 20.78411307 109.84300542 20.81054688 113.62133789 C20.8168235 115.31466751 20.8168235 115.31466751 20.82322693 117.04220581 C20.83157059 118.06714645 20.83991425 119.0920871 20.84851074 120.14808655 C20.85366447 121.04201646 20.85881821 121.93594637 20.86412811 122.85696507 C20.86352793 125.05182498 20.86352793 125.05182498 22 127 C25.32963894 127.64031518 28.48366275 128 31.875 128 C32.57625 128 33.2775 128 34 128 C35 129 35 129 35.09765625 132.16015625 C35.08605469 133.44792969 35.07445312 134.73570312 35.0625 136.0625 C35.05347656 137.35285156 35.04445313 138.64320313 35.03515625 139.97265625 C35.02355469 140.97167969 35.01195312 141.97070312 35 143 C28.18053324 146.31042076 18.58895473 146.23574472 11.31640625 144.27734375 C6.41028757 141.98658512 3.19308878 138.99453479 1.19148636 133.97071075 C-1.06612411 127.06390817 -1.41591086 120.74390213 -1.35644531 113.51367188 C-1.35848969 112.30598145 -1.36053406 111.09829102 -1.36264038 109.85400391 C-1.36511627 106.57342782 -1.35433814 103.29323757 -1.33711338 100.01271629 C-1.32197562 96.57037562 -1.3232492 93.12803733 -1.32244873 89.68566895 C-1.31877011 83.91604215 -1.3038659 78.14653535 -1.28125 72.37695312 C-1.25226584 64.96759303 -1.24201415 57.55832879 -1.2375679 50.14891815 C-1.23359313 43.77131794 -1.22110042 37.3937386 -1.20722103 31.01615334 C-1.20312244 28.96747002 -1.2001969 26.91878743 -1.19742584 24.87010193 C-1.19058431 21.06375294 -1.17696465 17.25749273 -1.16113281 13.45117188 C-1.16001495 12.3145813 -1.15889709 11.17799072 -1.15774536 10.00695801 C-1.15203522 8.97530518 -1.14632507 7.94365234 -1.14044189 6.8807373 C-1.13746723 5.98115044 -1.13449257 5.08156357 -1.13142776 4.15471649 C-1 2 -1 2 0 0 Z " fill="#232F3E" transform="translate(612,0)"/>
<path d="M0 0 C0.804375 -0.00128906 1.60875 -0.00257812 2.4375 -0.00390625 C3.283125 -0.00003906 4.12875 0.00382812 5 0.0078125 C6.2684375 0.00201172 6.2684375 0.00201172 7.5625 -0.00390625 C8.366875 -0.00261719 9.17125 -0.00132813 10 0 C10.7425 0.00112793 11.485 0.00225586 12.25 0.00341797 C14 0.1328125 14 0.1328125 15 1.1328125 C15.10376511 2.72003063 15.13796406 4.31184347 15.14476013 5.9024353 C15.15165863 6.93441544 15.15855713 7.96639557 15.16566467 9.02964783 C15.16827805 10.17148026 15.17089142 11.31331268 15.17358398 12.48974609 C15.180271 13.68476242 15.18695801 14.87977875 15.19384766 16.11100769 C15.20793704 18.716001 15.22025699 21.32093758 15.22979546 23.92594528 C15.24521445 28.04349766 15.26916344 32.16097241 15.29469299 36.2784729 C15.36598447 47.98898418 15.42569044 59.69954015 15.47680664 71.41015625 C15.50509459 77.87354469 15.54046835 84.33685613 15.58346039 90.80016387 C15.60586415 94.22247544 15.62436884 97.64471553 15.63390923 101.06708908 C15.64601577 104.88386674 15.67014638 108.7003918 15.69702148 112.51708984 C15.69761063 113.65487381 15.69819977 114.79265778 15.69880676 115.96492004 C15.70852509 117.00253983 15.71824341 118.04015961 15.72825623 119.10922241 C15.73248816 120.01220251 15.7367201 120.91518261 15.74108028 121.84552574 C15.85478248 124.41070877 15.85478248 124.41070877 18 127.1328125 C21.0000808 127.86616558 23.66392025 128.14045068 26.75 128.0703125 C29 128.1328125 29 128.1328125 31 130.1328125 C31.30078125 132.62890625 31.30078125 132.62890625 31.3125 135.5703125 C31.32925781 136.53839844 31.34601562 137.50648438 31.36328125 138.50390625 C31 141.1328125 31 141.1328125 29.66796875 142.91796875 C24.24467427 146.86795607 15.39710078 145.58570459 9 145.1328125 C3.65430998 143.7052262 -0.07906652 140.8512435 -3 136.1328125 C-5.71949711 130.16910893 -5.27340609 124.04413543 -5.24291992 117.62573242 C-5.24576744 115.73951172 -5.24576744 115.73951172 -5.24867249 113.81518555 C-5.25350284 110.37958404 -5.24588967 106.94411323 -5.23571944 103.50852752 C-5.22691711 99.91220617 -5.22869676 96.31588864 -5.2290802 92.71955872 C-5.22814506 86.68647073 -5.21947819 80.6534332 -5.20581055 74.62036133 C-5.19005101 67.63792951 -5.18481374 60.65555278 -5.1855461 53.67310447 C-5.18615542 46.95724101 -5.18106103 40.24139555 -5.17275429 33.52553749 C-5.16921732 30.66549858 -5.16739047 27.80546603 -5.16686058 24.94542503 C-5.16567382 20.96123668 -5.15597969 16.9770946 -5.14526367 12.99291992 C-5.14571686 11.7996962 -5.14617004 10.60647247 -5.14663696 9.37709045 C-5.14237198 8.29896088 -5.13810699 7.2208313 -5.13371277 6.11003113 C-5.13203692 5.16745547 -5.13036108 4.22487982 -5.12863445 3.25374126 C-4.90297244 -0.46698088 -3.30006434 0.00501312 0 0 Z " fill="#232F3E" transform="translate(888,-0.1328125)"/>
<path d="M0 0 C0.74886475 0.00523682 1.49772949 0.01047363 2.26928711 0.01586914 C3.07817383 0.0190918 3.88706055 0.02231445 4.72045898 0.02563477 C5.5705957 0.03401367 6.42073242 0.04239258 7.29663086 0.05102539 C8.15063477 0.05553711 9.00463867 0.06004883 9.88452148 0.06469727 C12.00108749 0.07652166 14.11761771 0.0944577 16.23413086 0.11352539 C17.92191263 3.48908893 17.37208476 7.31700875 17.36352539 11.02954102 C17.36527771 11.95320969 17.36703003 12.87687836 17.36883545 13.82853699 C17.37324916 16.89230204 17.37031765 19.95600972 17.36694336 23.01977539 C17.36761654 25.14204927 17.36858668 27.26432307 17.36984253 29.38659668 C17.37131885 33.83871188 17.36916704 38.29080705 17.36450195 42.74291992 C17.35880471 48.4597966 17.36208406 54.17662633 17.36807442 59.89350128 C17.37168179 64.27712358 17.37054063 68.66073468 17.36794662 73.0443573 C17.36727785 75.15276597 17.36810408 77.26117564 17.37042618 79.36958313 C17.37295557 82.31225287 17.36910801 85.25484577 17.36352539 88.19750977 C17.36554962 89.07549728 17.36757385 89.9534848 17.36965942 90.858078 C17.34839469 96.88499773 17.34839469 96.88499773 16.23413086 99.11352539 C13.25490492 99.14036526 10.27591791 99.16028576 7.29663086 99.17602539 C6.44649414 99.1844043 5.59635742 99.1927832 4.72045898 99.20141602 C3.91157227 99.20463867 3.10268555 99.20786133 2.26928711 99.21118164 C1.52042236 99.21641846 0.77155762 99.22165527 0 99.22705078 C-1.76586914 99.11352539 -1.76586914 99.11352539 -2.76586914 98.11352539 C-2.86649661 95.10539053 -2.90201654 92.12017511 -2.89526367 89.11157227 C-2.89701599 88.16693619 -2.89876831 87.22230011 -2.90057373 86.2490387 C-2.90499394 83.11009919 -2.90205366 79.97121552 -2.89868164 76.83227539 C-2.89935463 74.66133615 -2.90032461 72.49039699 -2.90158081 70.31945801 C-2.90305801 65.76301356 -2.90090251 61.20658867 -2.89624023 56.65014648 C-2.89054294 50.79525953 -2.89382182 44.94041841 -2.8998127 39.08553314 C-2.90341771 34.60072481 -2.90228 30.11592743 -2.89968491 25.63111877 C-2.89901547 23.47164403 -2.89984464 21.31216831 -2.90216446 19.1526947 C-2.90469 16.14026231 -2.90085179 13.12790526 -2.89526367 10.11547852 C-2.8972879 9.2136232 -2.89931213 8.31176788 -2.90139771 7.38258362 C-2.87652813 0.18492819 -2.87652813 0.18492819 0 0 Z " fill="#232F3E" transform="translate(567.765869140625,44.886474609375)"/>
<path d="M0 0 C2.97643454 1.24018106 4.40835018 2.04620154 6.09765625 4.76953125 C7.82045139 9.02804219 7.6726194 13.50477135 7 18 C4.7984026 20.89683868 3.21405538 22.39297231 0 24 C-5.08942479 24.49992739 -9.51742937 24.81692667 -14.0625 22.3125 C-17.34693195 18.39237155 -18.21493929 15.56957245 -17.9375 10.5 C-17.31790042 5.96634455 -15.64601568 3.84567077 -12 1 C-8.31313877 -0.84343062 -4.03302333 -0.3556682 0 0 Z " fill="#232F3E" transform="translate(580,4)"/>
</svg>
